<svg width="26" height="26" viewBox="0 0 26 26" xmlns="http://www.w3.org/2000/svg"><g fill-rule="evenodd"><rect width="26" height="26" rx="6"/><path d="M11.679 20.73l-4.8 1.26a.307.307 0 0 1-.26-.048.322.322 0 0 1-.131-.233l-.482-5.053a1.31 1.31 0 0 1 .221-.86l8.37-12.248a1.234 1.234 0 0 1 1.752-.313l4.116 2.946a1.311 1.311 0 0 1 .306 1.794l-8.376 12.248c-.172.25-.426.43-.716.506z" fill="#FFF"/><path d="M6 19l.23 2.6a.45.45 0 0 0 .168.32.363.363 0 0 0 .327.066L9 21.336 6 19z" fill="#FFF"/><path d="M14.394 5.22l5.199 4.008c.461.356.53.788.207 1.297l-.017.026c-.323.509-.716.585-1.177.23l-5.199-4.01c-.461-.355-.53-.787-.207-1.296l.017-.026c.323-.509.715-.585 1.177-.23z"/></g></svg>