<svg width="15" height="17" viewBox="0 0 15 17" xmlns="http://www.w3.org/2000/svg" xmlns:xlink="http://www.w3.org/1999/xlink"><defs><path d="M13.167 6.375V4.25a.708.708 0 0 0-.709-.708h-1.416v.708a.708.708 0 0 1-1.417 0v-.708h-4.25v.708a.708.708 0 0 1-1.417 0v-.708H2.542a.708.708 0 0 0-.709.708v2.125h11.334zm0 1.417H1.833v6.375c0 .39.317.708.709.708h9.916a.708.708 0 0 0 .709-.708V7.792zM5.375 2.125h4.25v-.708a.708.708 0 1 1 1.417 0v.708h1.416c1.174 0 2.125.951 2.125 2.125v9.917a2.125 2.125 0 0 1-2.125 2.125H2.542a2.125 2.125 0 0 1-2.125-2.125V4.25c0-1.174.951-2.125 2.125-2.125h1.416v-.708a.708.708 0 0 1 1.417 0v.708z" id="a"/></defs><g fill="none" fill-rule="evenodd"><path d="M-2-1h20v20H-2z"/><use fill="#606060" fill-rule="nonzero" xlink:href="#a"/></g></svg>