<svg width="26" height="26" viewBox="0 0 26 26" xmlns="http://www.w3.org/2000/svg"><g fill="none" fill-rule="evenodd"><rect fill="#E3DADF" width="26" height="26" rx="4"/><path d="M10.184 8.71c-.14.241-.35.398-.571.42l-3.289.443c-1.267.196-1.768 1.663-.864 2.536l2.365 2.211c.19.184.28.432.234.657l-.572 3.133c-.203 1.225 1.114 2.152 2.232 1.564l2.924-1.468a.713.713 0 0 1 .705-.005l2.941 1.476c1.11.585 2.428-.342 2.226-1.56l-.572-3.132a.825.825 0 0 1 .237-.67l2.356-2.201c.908-.878.408-2.345-.852-2.54l-3.281-.442c-.261-.052-.487-.209-.58-.41l-1.452-2.88c-.556-1.123-2.185-1.123-2.742.002L10.184 8.71z" fill="#FFF"/></g></svg>