<svg width="13" height="17" viewBox="0 0 13 17" xmlns="http://www.w3.org/2000/svg" xmlns:xlink="http://www.w3.org/1999/xlink"><defs><path d="M11.625 4.127v1.831h1.832l-1.832-1.831zm2.833 3.248h-3.541a.708.708 0 0 1-.709-.708V3.125H5.25a.708.708 0 0 0-.708.708v11.334c0 .39.317.708.708.708h8.5a.708.708 0 0 0 .708-.708V7.375zm-3.541-5.667c.188 0 .368.075.5.208l4.25 4.25a.708.708 0 0 1 .208.5v8.5a2.125 2.125 0 0 1-2.125 2.126h-8.5a2.125 2.125 0 0 1-2.125-2.125V3.833c0-1.173.951-2.125 2.125-2.125h5.667zM12.333 9.5a.708.708 0 1 1 0 1.417H6.667a.708.708 0 0 1 0-1.417h5.666zm0 2.833a.708.708 0 0 1 0 1.417H6.667a.708.708 0 1 1 0-1.417h5.666zm-4.25-5.666a.708.708 0 1 1 0 1.416H6.667a.708.708 0 1 1 0-1.416h1.416z" id="a"/></defs><g transform="translate(-3 -1)" fill="none" fill-rule="evenodd"><path d="M0 0h20v20H0z"/><use fill="#606060" fill-rule="nonzero" xlink:href="#a"/></g></svg>