<svg width="26" height="26" viewBox="0 0 26 26" xmlns="http://www.w3.org/2000/svg"><g fill="none" fill-rule="evenodd"><rect fill="#E3DADF" width="26" height="26" rx="4"/><g fill-rule="nonzero"><path d="M17.66 21.938l-4.049-4.6a.147.147 0 0 0-.222 0l-4.048 4.6c-.124.13-.341.041-.341-.14V5.21C9 4.542 9.53 4 10.185 4h6.62C17.462 4 18 4.55 18 5.222v16.575c0 .182-.217.272-.34.14z" fill="#FFF"/><path d="M16.86 4H15c.63 0 1.15.542 1.15 1.211v14.94l1.522 1.787c.12.13.328.041.328-.14V5.21C18 4.542 17.49 4 16.86 4z" fill="#EFEFEF"/><path d="M9 19.569v2.234c0 .177.217.264.34.136l4.049-4.467a.15.15 0 0 1 .222 0l4.048 4.467c.124.128.341.04.341-.136v-2.234l-4.392-4.524a.15.15 0 0 0-.216 0L9 19.57z" fill="#EDEDED"/><path d="M16.805 4h-6.61C9.541 4 9 4.664 9 5.483V8h9V5.483C18 4.664 17.46 4 16.805 4z" fill="#F5F5F5"/><path d="M18 8V5.483C18 4.664 17.48 4 16.85 4H15c.63 0 1.15.664 1.15 1.483V8H18z" fill="#EFEFEF"/></g></g></svg>