<svg width="16" height="18" viewBox="0 0 16 18" xmlns="http://www.w3.org/2000/svg" xmlns:xlink="http://www.w3.org/1999/xlink"><defs><path d="M13.92 16.86a23.35 23.35 0 0 1-3.19 2.794c-.147.106-.254.18-.314.22a.75.75 0 0 1-.832 0 21.313 21.313 0 0 1-1.106-.822 23.35 23.35 0 0 1-2.397-2.192C3.85 14.507 2.5 12.029 2.5 9.5a7.5 7.5 0 1 1 15 0c0 2.529-1.352 5.007-3.58 7.36zm-3.333 1.018c.766-.61 1.531-1.298 2.244-2.05C14.82 13.728 16 11.565 16 9.5a6 6 0 1 0-12 0c0 2.065 1.18 4.227 3.17 6.328A21.866 21.866 0 0 0 10 18.329c.182-.134.379-.285.587-.45zM10 12.5a3 3 0 1 1 0-6 3 3 0 0 1 0 6zm0-1.5a1.5 1.5 0 1 0 0-3 1.5 1.5 0 0 0 0 3z" id="a"/></defs><g transform="translate(-2 -2)" fill="none" fill-rule="evenodd"><path d="M0 0h20v20H0z"/><use fill="#606060" xlink:href="#a"/></g></svg>