<svg width="41" height="39" viewBox="0 0 41 39" xmlns="http://www.w3.org/2000/svg" xmlns:xlink="http://www.w3.org/1999/xlink"><defs><path d="M30.711 30.622a.417.417 0 0 0-.589.59l2.083 2.083a.417.417 0 0 0 .59 0l4.583-4.584a.417.417 0 0 0-.59-.589L32.5 32.411l-1.789-1.789z" id="a"/></defs><g fill="none" fill-rule="evenodd"><path d="M31.103 7h-3.215v1.562a2.042 2.042 0 0 1-2.03 2.043 2.042 2.042 0 0 1-2.029-2.043V7H11.426v1.562a2.042 2.042 0 0 1-2.029 2.043 2.042 2.042 0 0 1-2.03-2.043V7H3.893C2.302 7 1 8.31 1 9.912v22.176C1 33.69 2.302 35 3.892 35h23.779a6.905 6.905 0 0 1-1.075-3.707c0-3.805 3.066-6.891 6.845-6.891.188 0 .376.01.559.024V9.912C33.995 8.31 32.693 7 31.103 7z" fill="#FFC9AF"/><path d="M31.038 5.637h-1.367V4.06C29.67 1.82 27.939 0 25.81 0c-2.13 0-3.861 1.82-3.861 4.059v1.578h-8.653V4.06C13.296 1.82 11.564 0 9.435 0c-2.13 0-3.861 1.82-3.861 4.059v1.578H3.957C1.775 5.637 0 7.503 0 9.797V32.84C0 35.134 1.775 37 3.957 37h19.244c.594 0 1.079-.51 1.079-1.135s-.485-1.134-1.08-1.134H3.958c-.993 0-1.799-.847-1.799-1.89V9.796c0-1.044.806-1.89 1.8-1.89h1.616v.65c0 2.239 1.731 4.059 3.86 4.059 2.13 0 3.862-1.82 3.862-4.06v-.65h8.657v.65c0 2.24 1.732 4.06 3.862 4.06s3.86-1.82 3.86-4.06v-.65h1.368c.993 0 1.799.847 1.799 1.891V20.89c0 .625.484 1.135 1.079 1.135.594 0 1.079-.51 1.079-1.135V9.797c-.005-2.294-1.78-4.16-3.962-4.16zm-19.9 2.92c0 .988-.763 1.79-1.703 1.79-.94 0-1.703-.802-1.703-1.79V4.059c0-.988.763-1.79 1.703-1.79.94 0 1.703.802 1.703 1.79v4.498zm16.38 0c0 .988-.763 1.79-1.703 1.79-.94 0-1.703-.802-1.703-1.79V4.059c0-.988.762-1.79 1.703-1.79.94 0 1.702.802 1.702 1.79v4.498z" fill="#FDB699"/><path d="M33.5 39c-4.134 0-7.5-3.366-7.5-7.5s3.366-7.5 7.5-7.5 7.5 3.366 7.5 7.5-3.366 7.5-7.5 7.5zm0-12.91a5.412 5.412 0 0 0-5.405 5.405A5.412 5.412 0 0 0 33.5 36.9a5.412 5.412 0 0 0 5.405-5.405A5.412 5.412 0 0 0 33.5 26.09z" fill="#FDB699"/><use stroke="#FDB699" fill="#FDB699" fill-rule="nonzero" xlink:href="#a"/></g></svg>