<svg width="36" height="40" viewBox="0 0 36 40" xmlns="http://www.w3.org/2000/svg"><g fill="none"><path d="M34.835 0H2.913C1.304 0 0 1.09 0 2.436V37.8c0-1.64 1.59-2.97 3.553-2.97h31.282c.643 0 1.165-.437 1.165-.975V.975C36 .435 35.478 0 34.835 0z" fill="#FFE55B"/><path d="M33.13 36.9c0-1.13.784-2.124 1.97-2.7H3.643C1.63 34.2 0 35.409 0 36.9s1.631 2.7 3.643 2.7h30.546c.291 0 .431-.26.224-.413-.792-.584-1.284-1.393-1.284-2.287z" fill="#FFEEAB"/><path d="M34.835 0h-3.108v26.52c0 2.527-2.448 4.574-5.47 4.574H0V37.8c0-1.64 1.59-2.97 3.553-2.97h31.282c.643 0 1.165-.437 1.165-.975V.975C36 .435 35.478 0 34.835 0z" fill="#FFD360" opacity=".785"/><g fill="#FFF"><path d="M23.56 22.704c-.68 0-1.264-.278-1.39-.661l-4.036-12.32h-.482l-4.034 12.32c-.116.443-.837.749-1.61.683-.774-.067-1.308-.48-1.192-.923a.546.546 0 0 1 .02-.06l4.25-12.982c.126-.383.71-.66 1.39-.661h2.834c.68 0 1.265.278 1.39.661l4.25 12.982c.145.44-.36.864-1.13.947-.086.01-.173.014-.26.014z"/><path d="M20.925 16.083h-5.4c-.745 0-1.35-.447-1.35-.998 0-.552.605-.998 1.35-.998h5.4c.745 0 1.35.446 1.35.998 0 .55-.605.998-1.35.998z"/></g></g></svg>