<svg class="icon" viewBox="0 0 1024 1024" xmlns="http://www.w3.org/2000/svg" width="200" height="200"><path d="M0 512a512 512 0 1 0 1024 0A512 512 0 1 0 0 512z" fill="#FFC434"/><path d="M607.862 415.271a25.64 25.64 0 1 0-36.273 36.274c30.05 30.05 30.05 78.769 0 108.82a25.64 25.64 0 1 0 36.273 36.273 128.276 128.276 0 0 0 0-181.367zm-120.123-94.01l-109.45 82.116h-68.45a33.91 33.91 0 0 0-34.147 33.871V574.7c0 18.432 15.282 33.871 34.147 33.871h68.45l109.49 82.078c15.202 11.421 27.332 5.159 27.332-13.785v-341.78c0-18.707-12.248-25.088-27.372-13.784z" fill="#FFF"/><path d="M680.409 342.725a25.64 25.64 0 1 0-36.234 36.273 179.554 179.554 0 0 1 0 253.913 25.64 25.64 0 1 0 36.234 36.312c90.19-90.19 90.19-236.347 0-326.498z" fill="#FFF"/></svg>