<svg width="12" height="16" viewBox="0 0 12 16" xmlns="http://www.w3.org/2000/svg" xmlns:xlink="http://www.w3.org/1999/xlink"><defs><path d="M13.5 15.293V4.75a.75.75 0 0 0-.75-.75h-7.5a.75.75 0 0 0-.75.75v10.543l4.064-2.903a.75.75 0 0 1 .872 0l4.064 2.903zM9 13.922L4.186 17.36A.75.75 0 0 1 3 16.75v-12A2.25 2.25 0 0 1 5.25 2.5h7.5A2.25 2.25 0 0 1 15 4.75v12a.75.75 0 0 1-1.186.61L9 13.922z" id="a"/></defs><g transform="translate(-3 -2)" fill="none" fill-rule="evenodd"><path d="M0 0h20v20H0z"/><use fill="#606060" xlink:href="#a"/></g></svg>