<svg width="18" height="16" viewBox="0 0 18 16" xmlns="http://www.w3.org/2000/svg" xmlns:xlink="http://www.w3.org/1999/xlink"><defs><path d="M15.75 4.6h-5.693l2.468-2.467L12 1.6l-3 3-3-3-.532.532L7.942 4.6H2.25a1.5 1.5 0 0 0-1.5 1.5v9c0 .825.675 1.5 1.5 1.5h13.5c.825 0 1.5-.675 1.5-1.5v-9a1.5 1.5 0 0 0-1.5-1.5zm0 10.5H2.25v-9h13.5v9zm-9-7.5v6l5.25-3-5.25-3z" id="a"/></defs><g transform="translate(0 -1)" fill="none" fill-rule="evenodd"><path d="M0 0h20v20H0z"/><use fill="#606060" xlink:href="#a"/></g></svg>