<svg width="40" height="42" viewBox="0 0 40 42" xmlns="http://www.w3.org/2000/svg" xmlns:xlink="http://www.w3.org/1999/xlink"><defs><path id="a" d="M.016.646h9.797v10.372H.016z"/><path id="c" d="M.006.646h9.797v10.372H.006z"/><path id="e" d="M0 .332h39.873V32.8H0z"/></defs><g fill="none" fill-rule="evenodd"><g transform="translate(9.6 .155)"><mask id="b" fill="#fff"><use xlink:href="#a"/></mask><path d="M7.27 10.548L.402 3.106a1.472 1.472 0 0 1 .083-2.074 1.472 1.472 0 0 1 2.074.084l6.866 7.441c.547.593.51 1.527-.083 2.074a1.472 1.472 0 0 1-2.074-.083" fill="#4B3A3C" opacity=".6" mask="url(#b)"/></g><g transform="translate(20 .155)"><mask id="d" fill="#fff"><use xlink:href="#c"/></mask><path d="M2.55 10.548l6.866-7.442a1.472 1.472 0 0 0-.083-2.074 1.472 1.472 0 0 0-2.074.084L.393 8.557a1.472 1.472 0 0 0 .083 2.074c.593.547 1.526.51 2.074-.083" fill="#4B3A3C" opacity=".6" mask="url(#d)"/></g><path d="M24.625 9.94c0 1.364-2.1 2.469-4.688 2.469-2.59 0-4.688-1.105-4.688-2.469 0-1.364 2.099-2.469 4.688-2.469 2.588 0 4.688 1.105 4.688 2.47" fill="#EEEEED"/><g transform="translate(0 8.955)"><mask id="f" fill="#fff"><use xlink:href="#e"/></mask><path d="M30.273 32.8H9.6c-5.28 0-9.6-4.32-9.6-9.6V9.932c0-5.28 4.32-9.6 9.6-9.6h20.673c5.28 0 9.6 4.32 9.6 9.6V23.2c0 5.28-4.32 9.6-9.6 9.6" fill="#FFE55B" mask="url(#f)"/></g><path d="M16.56 21.513c0-.875.62-1.233 1.377-.795l7.43 4.29c.758.437.758 1.153 0 1.59l-7.43 4.29c-.757.438-1.377.08-1.377-.795v-8.58z" fill="#FFF"/></g></svg>